<svg width="143" height="247" viewBox="0 0 143 247" fill="none" xmlns="http://www.w3.org/2000/svg">
<rect x="0.0507812" y="22.0348" width="150.187" height="335.872" fill="url(#paint0_linear_140_17159)"/>
<path d="M21.8961 0.189331H128.392L150.237 22.0347H0.0507812L21.8961 0.189331Z" fill="#FFB800"/>
<path d="M103.773 152.518V166.035H51.6176V152.518H71.0053V104.868C70.1861 105.96 68.9118 107.098 67.1824 108.281C65.4529 109.464 63.496 110.602 61.3114 111.695C59.2179 112.696 57.0789 113.515 54.8944 114.152C52.7098 114.789 50.7073 115.108 48.8869 115.108V101.045C50.7073 101.045 52.8008 100.499 55.1674 99.4065C57.534 98.3143 59.8551 97.0399 62.1306 95.5836C64.4972 94.0362 66.4997 92.5799 68.1381 91.2145C69.7765 89.7582 70.7322 88.7114 71.0053 88.0743H86.4336V152.518H103.773Z" fill="white"/>
<defs>
<linearGradient id="paint0_linear_140_17159" x1="75.1441" y1="22.0348" x2="75.1441" y2="258.237" gradientUnits="userSpaceOnUse">
<stop stop-color="#FFB552"/>
<stop offset="0.0001" stop-color="#FFB800"/>
</linearGradient>
</defs>
</svg>
