<svg width="143" height="247" viewBox="0 0 143 247" fill="none" xmlns="http://www.w3.org/2000/svg">
<rect x="0.237061" y="22.416" width="141.995" height="223.915" fill="#FF4C4B"/>
<path d="M0.237061 0.570679H121.578L142.232 22.416H0.237061L0.237061 0.570679Z" fill="#FF4C4B"/>
<path d="M78.2724 89.0829C80.5662 89.4652 82.5596 90.339 84.2526 91.7043C86.0002 93.0151 87.3382 94.7081 88.2666 96.7834C89.1951 98.8041 89.6593 101.098 89.6593 103.665C89.6593 107.051 88.8128 110 87.1198 112.512C85.4814 115.024 83.133 116.963 80.0746 118.328C77.0163 119.748 73.4118 120.458 69.2612 120.458C65.1106 120.458 61.4515 119.721 58.2839 118.246C55.1164 116.826 52.5768 114.751 50.6654 112.02L56.154 105.795C57.4647 107.761 59.1577 109.317 61.233 110.464C63.3084 111.666 65.9298 112.266 69.0974 112.266C72.6472 112.266 75.4052 111.502 77.3713 109.972C79.3374 108.443 80.3204 106.15 80.3204 103.091C80.3204 99.9236 79.2281 97.4387 77.0436 95.6365C74.9137 93.8343 71.6915 92.9331 67.377 92.9331H65.1652V85.888H67.6228C71.2819 85.888 74.0945 85.0415 76.0606 83.3485C78.0266 81.6009 79.0097 79.4163 79.0097 76.7949C79.0097 75.0473 78.6001 73.6273 77.7809 72.5351C77.0163 71.3882 75.924 70.5417 74.5041 69.9955C73.0841 69.4494 71.4457 69.1763 69.5889 69.1763C66.8036 69.1763 64.346 69.7771 62.2161 70.9786C60.0862 72.1801 58.3932 73.9004 57.137 76.1395L51.4846 69.9955C52.5768 68.2479 54.0787 66.7187 55.9902 65.408C57.9016 64.0973 60.0862 63.0869 62.5438 62.377C65.056 61.6124 67.7047 61.2301 70.49 61.2301C74.0945 61.2301 77.2621 61.8308 79.9927 63.0323C82.7234 64.2338 84.826 65.9268 86.3006 68.1114C87.8297 70.2959 88.5943 72.8627 88.5943 75.8119C88.5943 77.9418 88.1847 79.9625 87.3655 81.8739C86.5463 83.7308 85.3448 85.3146 83.761 86.6253C82.1773 87.8814 80.3477 88.7006 78.2724 89.0829Z" fill="white"/>
</svg>
