<svg width="143" height="247" viewBox="0 0 143 247" fill="none" xmlns="http://www.w3.org/2000/svg">
<rect x="0.0561523" y="22.7253" width="141.995" height="223.915" fill="#51B5FD"/>
<path d="M19.4191 0.880005H142.051V22.7253H0.0561523L19.4191 0.880005Z" fill="#A7CFEC"/>
<path d="M45.4119 137.725C45.4119 134.667 45.6667 131.864 46.1764 129.315C46.6862 126.693 47.56 124.218 48.7979 121.887C50.1086 119.557 51.8926 117.373 54.15 115.334C56.4802 113.222 59.4293 111.22 62.9973 109.326C65.546 107.87 67.949 106.596 70.2063 105.503C72.4637 104.338 74.4661 103.21 76.2138 102.117C77.9614 100.952 79.3085 99.7145 80.2552 98.4037C81.2746 97.093 81.7843 95.6003 81.7843 93.9255C81.7843 92.3235 81.3474 90.8307 80.4736 89.4472C79.5998 88.0636 78.2891 86.9714 76.5414 86.1704C74.7938 85.2965 72.6821 84.8596 70.2063 84.8596C68.2402 84.8596 66.4198 85.1145 64.745 85.6242C63.143 86.1339 61.6502 86.8257 60.2667 87.6995C58.956 88.5005 57.7545 89.4107 56.6622 90.4302C55.5699 91.3768 54.6233 92.3235 53.8223 93.2701L46.2857 84.6412C47.0138 83.7674 48.1425 82.7843 49.6717 81.6921C51.2737 80.527 53.1669 79.3983 55.3515 78.306C57.6088 77.141 60.1574 76.1943 62.9973 75.4661C65.8372 74.6651 68.932 74.2647 72.2816 74.2647C77.0148 74.2647 81.0561 75.0656 84.4058 76.6676C87.7554 78.1968 90.304 80.3449 92.0516 83.112C93.8721 85.8063 94.7823 88.8646 94.7823 92.2871C94.7823 94.9813 94.2362 97.3479 93.1439 99.3868C92.1245 101.426 90.7773 103.246 89.1025 104.848C87.4277 106.377 85.6437 107.724 83.7504 108.89C81.93 109.982 80.2187 110.965 78.6168 111.839C75.7769 113.222 73.3011 114.496 71.1893 115.662C69.1504 116.827 67.4028 117.992 65.9465 119.157C64.4901 120.249 63.2886 121.414 62.342 122.652C61.3954 123.817 60.5944 125.237 59.939 126.912H95.9838V137.725H45.4119Z" fill="white"/>
</svg>
